<?xml version="1.0" encoding="utf-8"?>
<!-- Generator: Adobe Illustrator 24.0.0, SVG Export Plug-In . SVG Version: 6.00 Build 0)  -->
<svg version="1.1" id="Capa_1" xmlns="http://www.w3.org/2000/svg" xmlns:xlink="http://www.w3.org/1999/xlink" x="0px" y="0px"
	 viewBox="0 0 1024.5 576" style="enable-background:new 0 0 1024.5 576;" xml:space="preserve">
<style type="text/css">
	.st0{fill-rule:evenodd;clip-rule:evenodd;fill:#E0944C;}
	.st1{fill-rule:evenodd;clip-rule:evenodd;fill:#F7C577;}
	.st2{fill-rule:evenodd;clip-rule:evenodd;fill:#400F4D;}
	.st3{fill-rule:evenodd;clip-rule:evenodd;fill:#140B18;}
</style>
<g>
	<path class="st0" d="M419.5,576H0V258.5c112.5,29.2,94.4,97.9,101.5,151.3c7.7,58,55.1,70.8,193.4,81.9
		C399.8,500.3,417.2,551.9,419.5,576z"/>
	<path class="st1" d="M394.5,576h-5.8c-19.7-32.9-63.3-73.1-161.3-71.9C94,505.7,83.4,428.5,75.6,372.2
		c-2.5-17.8-4.6-33.5-10.3-43.5c-11.7-21.2-24.2-35.5-43.7-45c-6.8-3.1-14.2-5.6-21.7-7.4v-3.7c8.7,1.8,17.1,4.7,25,8.4
		c20.8,9.8,33.6,25,45.7,46.5c5.9,10.5,8.1,26.4,10.6,44.6c7.5,55.1,17.9,130.6,146.4,128.8C329.5,499.5,374.7,542.1,394.5,576z"/>
	<path class="st2" d="M292.8,576H0v-7.7V402.4v-84.6c20.7,5.2,53.4,25.8,55.7,107c1.4,77,29.1,85.3,133,94.3
		C274.3,525.1,289.1,554.9,292.8,576z"/>
	<path class="st3" d="M299.4,576h-36.2c-7.1-15.8-29.5-41.7-95.6-46.5c-87.7-6.4-116.9,1.9-122.4-77.6
		c-4.6-67.7-29.8-90.6-45.3-97.9v-37c20.7,5.2,54.1,26.4,56.6,107.7c2.8,85.5,36.2,77,137.7,93.2C273.7,520.6,294.4,554.9,299.4,576
		z"/>
</g>
</svg>
