<?xml version="1.0" encoding="utf-8"?>
<!-- Generator: Adobe Illustrator 24.0.0, SVG Export Plug-In . SVG Version: 6.00 Build 0)  -->
<svg version="1.1" id="Capa_1" xmlns="http://www.w3.org/2000/svg" xmlns:xlink="http://www.w3.org/1999/xlink" x="0px" y="0px"
	 viewBox="0 0 1024.5 576" style="enable-background:new 0 0 1024.5 576;" xml:space="preserve">
<style type="text/css">
	.st0{fill-rule:evenodd;clip-rule:evenodd;fill:#E0944C;}
	.st1{fill-rule:evenodd;clip-rule:evenodd;fill:#F7C577;}
	.st2{fill-rule:evenodd;clip-rule:evenodd;fill:#400F4D;}
	.st3{fill-rule:evenodd;clip-rule:evenodd;fill:#140B18;}
</style>
<g>
	<path class="st0" d="M577.1-0.1h447.4v317.6c-120-29.2-100.7-97.9-108.3-151.3c-8.2-58-58.8-70.8-206.2-81.9
		C598.1,75.7,579.6,24,577.1-0.1z"/>
	<path class="st1" d="M603.8-0.1h6.2c-0.8,38.7,67.5,73.1,171.9,72c142.3-1.6,153.6,75.7,161.9,131.9c2.6,17.8,4.9,33.5,10.9,43.5
		c12.5,21.2,25.8,35.5,46.6,45c7.2,3.1,15.1,5.6,23.1,7.4v3.7c-9.3-1.8-18.2-4.7-26.7-8.4c-22.2-9.8-35.8-25-48.7-46.5
		c-6.3-10.5-8.6-26.4-11.3-44.6c-8-55.1-19.1-130.6-156.1-128.8C673,76.5,608.9,44.6,603.8-0.1z"/>
	<path class="st2" d="M639.9-0.1h384.6v173.7c-46-2.4-78-12.3-90.5-48.7c-15.4-44.6-74.2-65.3-182.6-68
		C666.7,54.5,645.3,21.1,639.9-0.1z"/>
	<path class="st3" d="M639.9-0.1h38.6c7.6,15.8,30.8,40.9,101.3,45.6c103.9,7.1,151,34.6,168.2,61.1c13.4,20.7,33.6,40.3,76.5,46.9
		v20c-46-2.4-77.7-12.1-90.2-48.6c-15.6-44.6-74.3-65.3-182.9-68C666.7,54.5,645.3,21.1,639.9-0.1z"/>
</g>
</svg>
