<?xml version="1.0" encoding="utf-8"?>
<!-- Generator: Adobe Illustrator 24.0.0, SVG Export Plug-In . SVG Version: 6.00 Build 0)  -->
<svg version="1.1" id="Capa_1" xmlns="http://www.w3.org/2000/svg" xmlns:xlink="http://www.w3.org/1999/xlink" x="0px" y="0px"
	 viewBox="0 0 97.4 97.4" style="enable-background:new 0 0 97.4 97.4;" xml:space="preserve">
<style type="text/css">
	.st0{fill-rule:evenodd;clip-rule:evenodd;fill:#2A0D31;}
	.st1{fill-rule:evenodd;clip-rule:evenodd;fill:#552C5E;}
	.st2{fill-rule:evenodd;clip-rule:evenodd;fill:#935FA7;}
	.st3{fill-rule:evenodd;clip-rule:evenodd;fill:#FFFFFF;}
</style>
<title>ofertacirculo</title>
<path class="st0" d="M48.7,0c26.9,0,48.7,21.8,48.7,48.7S75.6,97.4,48.7,97.4S0,75.6,0,48.7S21.8,0,48.7,0L48.7,0z"/>
<path class="st1" d="M48.7,3.7c24.9,0,45,20.1,45,45s-20.1,45-45,45s-45-20.1-45-45S23.9,3.7,48.7,3.7z"/>
<path class="st2" d="M48.7,3.7c11,0,21.6,4,29.9,11.3c11.9,21.8,3.9,49.2-17.9,61.1C44,85.2,23.5,82.9,9.3,70.3
	C-2.7,48.5,5.3,21.2,27.1,9.3C33.7,5.6,41.2,3.7,48.7,3.7L48.7,3.7z"/>
<polygon class="st0" points="42.7,72.4 43.9,73.3 44.1,73.6 44.3,73.8 44.5,74.1 44.7,74.4 44.8,74.8 44.9,75.1 44.9,75.5 45,76 
	45,76.1 44.9,76.3 44.9,76.4 44.9,76.6 44.9,76.8 44.9,76.9 44.8,77.1 44.8,77.3 44.2,80.9 44.1,81.2 44.1,81.5 44,81.8 43.9,82 
	43.8,82.3 43.7,82.6 43.6,82.8 43.5,83.1 43.4,83.3 43.3,83.5 43.1,83.7 43,83.9 42.8,84.1 42.7,84.3 42.5,84.4 42.3,84.6 
	42.1,84.7 41.9,84.9 41.7,85 41.5,85.1 41.3,85.2 41.1,85.3 40.8,85.4 40.6,85.5 40.3,85.6 40,85.6 39.8,85.7 39.5,85.7 39.2,85.8 
	38.9,85.8 38.6,85.8 38.3,85.8 37.9,85.8 37.6,85.8 37.3,85.8 37,85.7 36.8,85.7 36.5,85.6 36.3,85.6 36,85.5 35.8,85.4 35.6,85.3 
	35.4,85.2 35.2,85.1 33.9,84.3 34.1,84.4 34.3,84.5 34.5,84.6 34.8,84.7 35,84.8 35.2,84.8 35.5,84.9 35.8,84.9 36.1,85 36.4,85 
	36.7,85 37,85 37.3,85 37.6,85 38,85 38.2,84.9 38.5,84.9 38.8,84.8 39.1,84.8 39.3,84.7 39.6,84.6 39.8,84.5 40.1,84.4 40.3,84.3 
	40.5,84.2 40.7,84.1 40.9,83.9 41.1,83.8 41.3,83.6 41.5,83.5 41.6,83.3 41.8,83.1 41.9,82.9 42,82.7 42.2,82.5 42.3,82.2 42.4,82 
	42.5,81.8 42.6,81.5 42.7,81.2 42.8,80.9 42.9,80.6 42.9,80.3 43,80 43.6,76.4 43.7,76.2 43.7,76.1 43.7,75.9 43.7,75.7 43.7,75.6 
	43.8,75.4 43.8,75.2 43.8,75.1 43.7,74.7 43.7,74.3 43.6,73.9 43.5,73.5 43.3,73.2 43.1,72.9 42.9,72.6 "/>
<polygon class="st0" points="39.8,74.5 41,75.4 40.8,75.3 40.5,75.2 40.1,75.2 39.9,75.2 39.7,75.3 39.5,75.3 39.3,75.4 39.1,75.4 
	39,75.5 38.8,75.6 38.7,75.8 38.5,75.9 38.4,76.1 38.3,76.2 38.2,76.4 38.1,76.6 38,76.8 38,77.1 37.9,77.3 37.3,80.8 37.3,80.9 
	37.3,81 37.3,81.1 37.3,81.3 37.2,81.4 37.2,81.5 37.2,81.6 37.2,81.7 37.3,82 37.3,82.3 37.4,82.5 37.6,82.7 37.8,82.8 36.6,82 
	36.3,81.9 36.2,81.7 36,81.5 36,81.2 36,80.9 36,80.8 36,80.7 36,80.5 36,80.4 36,80.3 36,80.2 36,80.1 36,80 36.7,76.5 36.7,76.2 
	36.8,76 36.8,75.8 36.9,75.5 37,75.3 37.1,75.2 37.3,75 37.4,74.9 37.5,74.8 37.7,74.6 37.9,74.6 38,74.5 38.2,74.4 38.5,74.4 
	38.7,74.3 38.9,74.3 39.2,74.3 39.5,74.4 "/>
<polygon class="st0" points="53.4,79.9 54.5,80.8 49.7,80.8 48.5,79.9 "/>
<polygon class="st0" points="48.5,79.9 49.7,80.8 48.8,85.5 47.7,84.8 "/>
<polygon class="st0" points="47.7,84.8 48.8,85.5 45.6,85.5 44.4,84.8 "/>
<polygon class="st0" points="55.8,71.6 56.9,72.6 56.4,75.4 55.3,74.5 "/>
<polygon class="st0" points="55.3,74.5 56.4,75.4 50.6,75.4 49.5,74.5 "/>
<polygon class="st0" points="49.5,74.5 50.6,75.4 50.2,78 49,77.1 "/>
<polygon class="st0" points="53.8,77.1 54.9,78 54.5,80.8 53.4,79.9 "/>
<polygon class="st0" points="64.3,79.9 65.3,80.8 60.5,80.8 59.5,79.9 "/>
<polygon class="st0" points="59.5,79.9 60.5,80.8 59.7,85.5 58.6,84.8 "/>
<polygon class="st0" points="58.6,84.8 59.7,85.5 56.4,85.5 55.3,84.8 "/>
<polygon class="st0" points="66.8,71.6 67.8,72.6 67.3,75.4 66.3,74.5 "/>
<polygon class="st0" points="66.3,74.5 67.3,75.4 61.5,75.4 60.4,74.5 "/>
<polygon class="st0" points="60.4,74.5 61.5,75.4 61,78 60,77.1 "/>
<polygon class="st0" points="64.8,77.1 65.8,78 65.3,80.8 64.3,79.9 "/>
<path class="st3" d="M39.4,71.5c2.9,0,4.4,1.2,4.4,3.6c0,0.4,0,0.9-0.1,1.3L43,80c-0.2,1.4-0.8,2.8-1.9,3.8
	c-1.2,0.9-2.6,1.3-4.1,1.2c-1.8,0-3-0.4-3.7-1.2c-0.5-0.7-0.8-1.5-0.7-2.3c0-0.5,0.1-1,0.1-1.4l0.6-3.6C34,73.1,36,71.5,39.4,71.5
	L39.4,71.5z M37.5,82.2c0.5,0,1-0.1,1.5-0.5c0.4-0.5,0.7-1.1,0.8-1.8l0.6-3.5c0-0.2,0.1-0.4,0.1-0.6c0.1-0.7-0.4-1.4-1.1-1.5
	c-0.1,0-0.3,0-0.4,0c-1.3,0-2,0.7-2.3,2.1L36,80c0,0.3-0.1,0.7-0.1,1C36,81.8,36.5,82.2,37.5,82.2z"/>
<polygon class="st3" points="53.4,79.9 48.5,79.9 47.7,84.8 44.4,84.8 46.7,71.6 55.8,71.6 55.3,74.5 49.5,74.5 49,77.1 53.8,77.1 
	"/>
<polygon class="st3" points="64.3,79.9 59.5,79.9 58.6,84.8 55.3,84.8 57.7,71.6 66.8,71.6 66.3,74.5 60.4,74.5 60,77.1 64.8,77.1 
	"/>
<polygon class="st0" points="33,25.9 34.3,27.1 28.1,27.1 26.8,25.9 "/>
<polygon class="st0" points="30.9,16 32.3,17.4 31,25 29.6,23.7 "/>
<polygon class="st0" points="33.3,23.7 34.7,25 34.3,27.1 33,25.9 "/>
<polygon class="st0" points="43.2,16 44.5,17.4 43.4,23.6 43.3,23.9 43.3,24.1 43.2,24.3 43.2,24.5 43.1,24.7 43,24.9 42.9,25.1 
	42.9,25.3 42.8,25.4 42.7,25.6 42.6,25.8 42.5,25.9 42.3,26 42.2,26.2 42.1,26.3 42,26.4 41.8,26.5 41.7,26.6 41.5,26.7 41.4,26.8 
	41.2,26.9 41,27 40.9,27 40.7,27.1 40.5,27.1 40.3,27.2 40.1,27.2 39.9,27.3 39.7,27.3 39.4,27.3 39.2,27.3 38.9,27.3 38.7,27.3 
	38.5,27.3 38.3,27.3 38,27.3 37.8,27.2 37.7,27.2 37.5,27.1 37.3,27.1 37.1,27 37,27 36.8,26.9 36.7,26.8 36.6,26.7 36.4,26.6 
	36.3,26.5 35,25.2 35.1,25.3 35.3,25.4 35.4,25.5 35.5,25.6 35.7,25.7 35.8,25.8 36,25.8 36.2,25.9 36.3,25.9 36.5,26 36.8,26 
	37,26 37.2,26 37.4,26 37.7,26 37.9,26 38.1,26 38.4,26 38.6,26 38.8,26 39,25.9 39.2,25.9 39.4,25.8 39.6,25.8 39.8,25.7 40,25.6 
	40.1,25.5 40.3,25.4 40.4,25.4 40.6,25.2 40.7,25.1 40.8,25 41,24.9 41.1,24.8 41.2,24.6 41.3,24.5 41.4,24.3 41.5,24.1 41.6,24 
	41.7,23.8 41.8,23.6 41.8,23.4 41.9,23.2 42,23 42,22.8 42.1,22.6 42.1,22.3 "/>
<polygon class="st0" points="38,16 39.3,17.4 38.2,23.6 38.2,23.7 38.2,23.8 38.2,23.8 38.2,23.9 38.2,24 38.2,24.1 38.2,24.2 
	38.2,24.3 38.2,24.5 38.3,24.7 38.3,24.9 38.5,25 37.2,23.7 37,23.6 37,23.4 36.9,23.2 36.9,23 36.9,22.9 36.9,22.8 36.9,22.7 
	36.9,22.6 36.9,22.5 36.9,22.4 36.9,22.4 36.9,22.3 "/>
<polygon class="st0" points="52.7,16 53.8,17.4 52.1,27.1 50.9,25.9 "/>
<polygon class="st0" points="50.9,25.9 52.1,27.1 49.6,27.1 48.5,25.9 "/>
<polygon class="st0" points="46.8,20.5 48,21.8 47,27.1 45.8,25.9 "/>
<polygon class="st0" points="45.8,25.9 47,27.1 44.6,27.1 43.4,25.9 "/>
<polygon class="st0" points="47.6,16 48.8,17.4 50.5,22.4 49.3,21.1 "/>
<polygon class="st0" points="59.7,25.9 60.8,27.1 54,27.1 52.8,25.9 "/>
<polygon class="st0" points="61.4,16 62.5,17.4 62.1,19.5 61,18.2 "/>
<polygon class="st0" points="61,18.2 62.1,19.5 57.7,19.5 56.7,18.2 "/>
<polygon class="st0" points="56.7,18.2 57.7,19.5 57.4,21.3 56.3,20 "/>
<polygon class="st0" points="60,20 61,21.3 60.6,23.4 59.6,22.1 "/>
<polygon class="st0" points="59.6,22.1 60.6,23.4 57.1,23.4 56,22.1 "/>
<polygon class="st0" points="56,22.1 57.1,23.4 56.8,25 55.7,23.7 "/>
<polygon class="st0" points="60.1,23.7 61.1,25 60.8,27.1 59.7,25.9 "/>
<polygon class="st0" points="63.9,22.6 64.9,24 64.9,24.1 64.9,24.1 64.9,24.2 64.9,24.2 64.9,24.2 64.9,24.3 64.9,24.3 64.9,24.3 
	64.9,24.4 64.9,24.6 64.9,24.8 65.1,24.9 64,23.6 63.9,23.5 63.9,23.3 63.8,23.1 63.8,23 63.8,23 63.8,23 63.9,22.9 63.9,22.9 
	63.9,22.9 63.9,22.9 63.9,22.8 "/>
<polygon class="st0" points="66.4,22.7 67.4,24 67.3,23.9 67.2,23.8 67.1,23.7 67,23.6 66.8,23.6 66.7,23.5 66.6,23.5 66.4,23.4 
	66.3,23.4 66.1,23.3 66,23.3 65.8,23.2 65.7,23.1 65.5,23.1 65.3,23 65.2,23 65,22.9 64.8,22.9 64.7,22.8 64.5,22.8 64.4,22.7 
	64.2,22.6 64.1,22.5 63.9,22.4 63.8,22.3 63.7,22.2 63.6,22 62.5,20.7 62.7,20.8 62.8,21 62.9,21.1 63,21.2 63.2,21.3 63.3,21.4 
	63.5,21.4 63.7,21.5 63.8,21.6 64,21.6 64.2,21.7 64.3,21.7 64.5,21.8 64.6,21.8 64.8,21.9 65,21.9 65.1,22 65.3,22 65.4,22.1 
	65.6,22.2 65.7,22.2 65.8,22.3 66,22.4 66.1,22.4 66.2,22.5 66.3,22.6 "/>
<polygon class="st0" points="69.4,17.1 70.4,18.4 70.5,18.6 70.6,18.9 70.6,19.1 70.7,19.3 70.7,19.6 70.7,19.7 70.7,19.8 
	70.7,19.9 70.7,20 70.6,20.1 70.6,20.1 70.6,20.2 70.6,20.3 70.6,20.4 70.5,20.5 70.5,20.6 70.5,20.6 70.4,20.7 70.4,20.8 
	70.4,20.8 70.4,20.8 70.3,21 69.3,19.7 69.4,19.5 69.4,19.5 69.5,19.4 69.5,19.4 69.5,19.3 69.5,19.2 69.6,19.2 69.6,19.1 69.6,19 
	69.6,18.9 69.7,18.8 69.7,18.7 69.7,18.6 69.7,18.5 69.7,18.4 69.7,18.3 69.7,18.2 69.7,18 69.7,17.7 69.6,17.5 69.5,17.3 "/>
<polygon class="st0" points="67,18.3 68,19.7 67.9,19.6 67.7,19.5 67.5,19.4 67.3,19.4 67,19.3 66.7,19.4 66.4,19.4 66.2,19.5 
	65.9,19.6 65.8,19.7 65.7,19.9 65.6,20 65.6,20.3 65.6,20.4 65.6,20.5 65.7,20.6 65.7,20.7 65.8,20.8 64.8,19.4 64.7,19.3 
	64.6,19.2 64.6,19.1 64.6,19 64.6,18.9 64.6,18.7 64.7,18.5 64.8,18.4 64.9,18.2 65.1,18.1 65.4,18 65.7,18 66,18 66.3,18 66.5,18 
	66.7,18.1 66.9,18.2 "/>
<polygon class="st0" points="69.3,19.7 70.3,21 67.9,21 66.9,19.7 "/>
<polygon class="st0" points="68.7,21.4 69.7,22.7 69.8,22.8 69.9,23 69.9,23.2 70,23.4 70,23.5 70,23.7 70.1,23.9 70,24.1 70,24.4 
	70,24.5 70,24.7 69.9,24.9 69.9,25.1 69.8,25.3 69.8,25.4 69.7,25.6 69.7,25.7 69.6,25.9 69.5,26 69.4,26.1 69.3,26.3 69.2,26.4 
	69,26.5 68.9,26.6 68.8,26.7 68.6,26.8 68.4,26.8 68.3,26.9 68.1,27 67.9,27 67.7,27.1 67.5,27.1 67.3,27.2 67.1,27.2 66.9,27.3 
	66.6,27.3 66.4,27.3 66.1,27.3 65.9,27.3 65.6,27.3 65.4,27.3 65.1,27.3 64.9,27.3 64.7,27.2 64.5,27.2 64.3,27.2 64.1,27.1 
	63.9,27.1 63.7,27 63.6,27 63.4,26.9 63.3,26.8 63.2,26.7 63.1,26.6 63,26.5 62.8,26.4 61.8,25.1 61.9,25.3 62,25.4 62.1,25.5 
	62.3,25.5 62.4,25.6 62.5,25.7 62.7,25.7 62.9,25.8 63,25.9 63.2,25.9 63.4,25.9 63.7,26 63.9,26 64.1,26 64.3,26 64.6,26 64.9,26 
	65.1,26 65.4,26 65.6,26 65.9,26 66.1,26 66.3,25.9 66.5,25.9 66.7,25.8 66.9,25.8 67.1,25.7 67.3,25.6 67.5,25.6 67.6,25.5 
	67.8,25.4 67.9,25.3 68,25.2 68.2,25.1 68.3,25 68.4,24.9 68.5,24.7 68.6,24.6 68.7,24.5 68.8,24.3 68.8,24.1 68.9,24 68.9,23.8 
	69,23.6 69,23.5 69,23.3 69.1,23 69.1,22.9 69.1,22.6 69.1,22.4 69.1,22.2 69,22 69,21.9 68.9,21.7 68.8,21.5 "/>
<polygon class="st3" points="33.1,25.9 26.9,25.9 28.6,16.1 31,16.1 29.7,23.8 33.4,23.8 "/>
<path class="st3" d="M40.8,25.2c-0.9,0.7-2,1-3.1,0.9c-1,0.1-2-0.2-2.7-0.9c-0.4-0.5-0.6-1.1-0.6-1.7c0-0.4,0-0.7,0.1-1.1l1.1-6.3
	h2.4L37,22.3c0,0.2-0.1,0.5-0.1,0.7c0,0.7,0.4,1,1.1,1c0.4,0,0.8-0.1,1.1-0.4c0.3-0.4,0.5-0.8,0.6-1.3l1.1-6.2h2.4l-1.1,6.3
	C42.1,23.5,41.6,24.5,40.8,25.2z"/>
<polygon class="st3" points="52.7,16.1 51,25.9 48.6,25.9 46.8,20.6 45.9,25.9 43.5,25.9 45.2,16.1 47.7,16.1 49.4,21.1 50.3,16.1 
	"/>
<polygon class="st3" points="59.8,25.9 53,25.9 54.7,16.1 61.5,16.1 61.1,18.3 56.8,18.3 56.4,20.1 60,20.1 59.7,22.2 56,22.2 
	55.8,23.8 60.2,23.8 "/>
<path class="st3" d="M64,23.1c0,0.6,0.4,0.9,1.4,0.9c0.9,0,1.4-0.3,1.4-0.8c0-0.3-0.2-0.6-0.5-0.7c-0.4-0.2-0.7-0.4-1.1-0.5
	c-0.4-0.1-0.9-0.3-1.3-0.4c-0.4-0.2-0.8-0.4-1.1-0.8c-0.3-0.4-0.5-0.9-0.5-1.3c0-2.3,1.5-3.4,4.4-3.4c0.9-0.1,1.7,0.2,2.4,0.6
	c0.5,0.4,0.8,1,0.8,1.7c0,0.3,0,0.5-0.1,0.8c0,0.2-0.1,0.4-0.2,0.5l-0.1,0.2H67c0.2-0.2,0.3-0.5,0.3-0.8c0-0.6-0.4-0.9-1.1-0.9
	c-1,0-1.5,0.3-1.5,0.9c0,0.3,0.2,0.6,0.5,0.7c0.4,0.2,0.7,0.3,1.1,0.4c0.4,0.1,0.9,0.2,1.3,0.4c0.4,0.1,0.8,0.4,1.1,0.8
	c0.3,0.4,0.5,0.9,0.5,1.4c0.1,1-0.3,1.9-1,2.6c-0.9,0.6-2.1,0.9-3.2,0.8c-1,0.1-2.1-0.2-2.9-0.8c-0.4-0.4-0.6-1-0.6-1.6
	c0-0.3,0-0.6,0.1-0.8v-0.2H64v0.2C64,23,64,23.1,64,23.1z"/>
<polygon class="st0" points="70.7,36.8 71.7,38.2 71.9,38.4 72.1,38.7 72.2,39 72.3,39.4 72.4,39.8 72.5,40.2 72.5,40.6 72.5,41.1 
	72.5,41.3 72.5,41.4 72.5,41.6 72.5,41.8 72.5,42 72.5,42.2 72.5,42.3 72.4,42.5 72.1,45 72,45.7 71.9,46.3 71.8,46.9 71.6,47.4 
	71.4,47.9 71.2,48.4 70.9,48.8 70.6,49.1 70.3,49.5 70,49.7 69.7,50 69.3,50.2 68.9,50.3 68.5,50.4 68,50.5 67.5,50.5 67.1,50.5 
	66.8,50.4 66.4,50.4 66.1,50.3 65.8,50.1 65.5,50 65.3,49.8 65.1,49.5 64,48.3 64.2,48.5 64.4,48.7 64.7,48.9 65,49 65.3,49.1 
	65.7,49.2 66.1,49.3 66.5,49.3 66.9,49.3 67.4,49.2 67.8,49.1 68.2,48.9 68.6,48.7 69,48.5 69.3,48.2 69.6,47.9 69.9,47.5 
	70.1,47.1 70.3,46.7 70.6,46.2 70.7,45.6 70.9,45.1 71,44.4 71.1,43.8 71.4,41.2 71.4,41 71.5,40.8 71.5,40.7 71.5,40.5 71.5,40.3 
	71.5,40.1 71.5,40 71.5,39.8 71.5,39.3 71.5,38.9 71.4,38.4 71.3,38 71.2,37.7 71.1,37.4 70.9,37.1 "/>
<polygon class="st0" points="68.5,39.4 69.5,40.7 69.4,40.6 69.3,40.4 69.1,40.4 68.8,40.3 68.7,40.4 68.6,40.4 68.4,40.4 
	68.3,40.5 68.2,40.6 68.1,40.7 68,40.8 67.9,40.9 67.8,41.1 67.7,41.2 67.6,41.4 67.6,41.6 67.5,41.8 67.4,42.1 67.4,42.3 
	67.4,42.6 67.1,45 67,45.1 67,45.3 67,45.4 67,45.5 67,45.6 67,45.8 67,45.9 67,46 67,46.3 67,46.6 67.1,46.8 67.2,47 66.2,45.7 
	66,45.5 66,45.3 65.9,45 65.9,44.7 65.9,44.6 65.9,44.5 65.9,44.4 65.9,44.2 65.9,44.1 65.9,44 66,43.8 66,43.7 66.3,41.3 66.3,41 
	66.4,40.8 66.4,40.5 66.5,40.3 66.6,40.1 66.6,39.9 66.7,39.7 66.8,39.6 66.9,39.5 67,39.3 67.1,39.2 67.2,39.2 67.4,39.1 
	67.5,39.1 67.6,39 67.8,39 68,39 68.2,39.1 68.3,39.2 "/>
<polygon class="st0" points="81.4,35.8 82.3,37.2 68.9,63.3 67.8,62.2 "/>
<polygon class="st0" points="67.8,62.2 68.9,63.3 65.2,63.3 64.2,62.2 "/>
<polygon class="st0" points="81.7,50.5 82.6,51.8 82.8,52 82.9,52.3 83,52.7 83.1,53.1 83.2,53.5 83.2,53.9 83.2,54.4 83.2,54.5 
	83.2,54.7 83.2,54.9 83.2,55.1 83.2,55.3 83.2,55.5 83.2,55.7 83.1,55.9 82.8,58.4 82.7,58.7 82.7,59.1 82.6,59.4 82.6,59.7 
	82.5,60 82.4,60.3 82.3,60.5 82.2,60.8 82.2,61 82.1,61.3 81.9,61.5 81.8,61.7 81.7,62 81.6,62.2 81.5,62.3 81.3,62.5 81.2,62.7 
	81,62.8 80.9,63 80.7,63.1 80.6,63.2 80.4,63.3 80.2,63.4 80,63.5 79.8,63.6 79.6,63.7 79.4,63.7 79.2,63.8 78.9,63.8 78.7,63.8 
	78.5,63.8 78.2,63.8 77.8,63.8 77.4,63.8 77.1,63.7 76.8,63.6 76.5,63.5 76.2,63.3 75.9,63.1 75.7,62.9 74.7,61.8 75,62 75.2,62.2 
	75.5,62.4 75.8,62.5 76.1,62.6 76.5,62.7 76.9,62.7 77.3,62.8 77.5,62.8 77.8,62.7 78,62.7 78.2,62.7 78.4,62.6 78.7,62.6 
	78.9,62.5 79.1,62.4 79.3,62.3 79.4,62.2 79.6,62.1 79.8,62 79.9,61.9 80.1,61.7 80.3,61.6 80.4,61.4 80.5,61.2 80.7,61 80.8,60.8 
	80.9,60.6 81,60.4 81.1,60.2 81.2,59.9 81.3,59.7 81.4,59.4 81.5,59.1 81.6,58.8 81.6,58.5 81.7,58.2 81.8,57.9 81.8,57.6 
	81.9,57.3 82.2,54.7 82.2,54.5 82.3,54.3 82.3,54.1 82.3,53.9 82.3,53.7 82.3,53.5 82.3,53.4 82.3,53.2 82.3,52.7 82.3,52.3 
	82.2,51.9 82.1,51.5 82,51.2 81.8,50.8 "/>
<polygon class="st0" points="79.3,52.9 80.2,54.1 80.1,53.9 79.9,53.8 79.7,53.7 79.5,53.7 79.4,53.7 79.2,53.7 79.1,53.8 79,53.8 
	78.8,53.9 78.7,54 78.6,54.1 78.5,54.3 78.4,54.4 78.4,54.6 78.3,54.8 78.2,55 78.2,55.2 78.1,55.4 78.1,55.7 78,56 77.7,58.3 
	77.7,58.5 77.7,58.6 77.7,58.7 77.7,58.8 77.7,59 77.7,59.1 77.7,59.2 77.7,59.3 77.7,59.6 77.8,59.9 77.8,60.2 77.9,60.3 
	78.1,60.5 77.1,59.4 77,59.2 76.8,59 76.8,58.8 76.7,58.5 76.7,58.2 76.7,58 76.7,57.9 76.7,57.8 76.7,57.7 76.7,57.6 76.8,57.4 
	76.8,57.3 76.8,57.2 77.1,54.8 77.1,54.5 77.2,54.3 77.2,54 77.3,53.8 77.3,53.6 77.4,53.4 77.5,53.2 77.6,53.1 77.7,52.9 
	77.8,52.8 77.9,52.7 78,52.6 78.1,52.6 78.3,52.5 78.4,52.5 78.6,52.5 78.8,52.5 79,52.6 79.1,52.7 "/>
<polygon class="st0" points="22.2,54.5 23.7,55.7 23.7,55.7 23.7,55.8 23.7,55.9 23.7,55.9 23.7,56 23.7,56 23.7,56.1 23.6,56.2 
	23.7,56.4 23.7,56.6 23.8,56.8 23.8,57 23.9,57.2 24.1,57.4 24.2,57.5 24.4,57.7 22.9,56.5 22.7,56.4 22.5,56.2 22.4,56 22.3,55.8 
	22.2,55.7 22.2,55.5 22.1,55.2 22.1,55 22.1,54.9 22.1,54.9 22.1,54.8 22.1,54.8 22.2,54.7 22.2,54.6 22.2,54.6 "/>
<polygon class="st0" points="28,50.5 29.5,51.8 29.3,51.7 29.2,51.6 29.1,51.5 29,51.4 28.9,51.4 28.8,51.3 28.6,51.3 28.5,51.2 
	28.4,51.2 28.2,51.2 28.1,51.2 28,51.2 27.8,51.2 27.5,51.2 27.3,51.2 27.1,51.2 26.8,51.2 26.6,51.2 26.4,51.3 26.2,51.3 26,51.4 
	25.8,51.5 25.6,51.5 25.4,51.6 25.2,51.7 25.1,51.8 24.9,51.9 24.8,52 24.6,52.1 24.2,52.4 22.7,51.2 23.1,50.9 23.3,50.8 
	23.4,50.7 23.6,50.5 23.7,50.5 23.9,50.4 24.1,50.3 24.3,50.2 24.5,50.2 24.7,50.1 24.9,50.1 25.1,50 25.4,50 25.6,50 25.8,49.9 
	26.1,49.9 26.3,49.9 26.5,49.9 26.6,49.9 26.8,50 26.9,50 27,50 27.2,50.1 27.3,50.1 27.4,50.2 27.5,50.2 27.7,50.3 27.8,50.4 
	27.9,50.5 "/>
<polygon class="st0" points="22.7,51.2 24.2,52.4 18.2,52.4 16.6,51.2 "/>
<polygon class="st0" points="36.6,36.1 38,37.5 37,43.1 35.6,41.8 "/>
<polygon class="st0" points="35.6,41.8 37,43.1 25.8,43.1 24.3,41.8 "/>
<polygon class="st0" points="24.3,41.8 25.8,43.1 25.2,46.7 23.7,45.4 "/>
<polygon class="st0" points="33.3,46.3 34.7,47.6 35,47.8 35.2,48.1 35.5,48.3 35.7,48.6 35.9,48.9 36,49.2 36.2,49.5 36.4,49.8 
	36.5,50.1 36.6,50.5 36.7,50.8 36.8,51.2 36.9,51.6 36.9,51.9 37,52.3 37,52.7 37,53.2 37,53.5 37,53.7 37,54 37,54.3 36.9,54.6 
	36.9,54.9 36.9,55.2 36.8,55.4 36.8,55.7 36.7,56 36.7,56.2 36.6,56.5 36.5,56.7 36.5,57 36.4,57.2 36.3,57.5 36.2,57.7 36.1,57.9 
	36,58.2 35.9,58.4 35.8,58.6 35.7,58.8 35.5,59 35.4,59.3 35.3,59.5 35.1,59.7 35,59.9 34.8,60.1 34.7,60.3 34.5,60.5 34.4,60.7 
	34.2,60.8 34,61 33.8,61.2 33.6,61.4 33.4,61.5 33.2,61.7 33,61.9 32.8,62 32.6,62.2 32.4,62.3 32.2,62.4 32,62.5 31.7,62.7 
	31.5,62.8 31.2,62.9 31,63 30.7,63.1 30.5,63.2 30.2,63.3 29.9,63.3 29.7,63.4 29.4,63.5 29.1,63.5 28.8,63.6 28.5,63.6 28.2,63.7 
	27.9,63.7 27.6,63.7 27.3,63.8 27,63.8 26.7,63.8 26.4,63.8 26,63.8 25.7,63.8 25.4,63.8 25,63.8 24.7,63.8 24.4,63.8 24.1,63.7 
	23.8,63.7 23.5,63.7 23.3,63.7 23,63.6 22.7,63.6 22.5,63.5 22.2,63.5 22,63.4 21.7,63.4 21.5,63.3 21.3,63.3 21,63.2 20.8,63.1 
	20.6,63 20.4,63 20.2,62.9 20,62.8 19.9,62.7 19.7,62.6 19.5,62.5 19.4,62.4 19.2,62.3 17.6,61.2 17.8,61.3 18,61.4 18.1,61.5 
	18.3,61.6 18.5,61.7 18.7,61.8 18.9,61.8 19.1,61.9 19.3,62 19.5,62.1 19.7,62.2 20,62.2 20.2,62.3 20.4,62.3 20.7,62.4 21,62.4 
	21.2,62.5 21.5,62.5 21.8,62.6 22,62.6 22.3,62.6 22.6,62.7 22.9,62.7 23.2,62.7 23.5,62.7 23.9,62.7 24.2,62.7 24.5,62.7 
	24.9,62.7 25.2,62.7 25.5,62.7 25.8,62.7 26.1,62.7 26.5,62.6 26.8,62.6 27.1,62.5 27.4,62.5 27.6,62.4 27.9,62.4 28.2,62.3 
	28.5,62.2 28.8,62.2 29,62.1 29.3,62 29.5,61.9 29.8,61.8 30,61.7 30.3,61.5 30.5,61.4 30.8,61.3 31,61.2 31.2,61 31.4,60.9 
	31.6,60.8 31.8,60.6 32,60.4 32.2,60.3 32.4,60.1 32.6,59.9 32.8,59.7 33,59.5 33.1,59.3 33.3,59.2 33.4,59 33.6,58.8 33.7,58.5 
	33.9,58.3 34,58.1 34.2,57.9 34.3,57.7 34.4,57.5 34.5,57.2 34.6,57 34.7,56.8 34.8,56.5 34.9,56.3 35,56 35.1,55.8 35.2,55.5 
	35.2,55.3 35.3,55 35.3,54.8 35.4,54.5 35.4,54.2 35.5,54 35.5,53.7 35.5,53.4 35.6,53.1 35.6,52.8 35.6,52.5 35.6,52.3 35.6,52 
	35.6,51.5 35.6,51.1 35.5,50.7 35.5,50.3 35.4,50 35.3,49.6 35.2,49.3 35.1,48.9 35,48.6 34.8,48.3 34.7,47.9 34.5,47.6 34.3,47.4 
	34.1,47.1 33.8,46.8 33.6,46.6 "/>
<polygon class="st0" points="58.3,38.3 59.5,39.6 59.7,39.9 59.9,40.2 60.1,40.5 60.3,40.8 60.4,41.2 60.6,41.5 60.7,41.9 
	60.8,42.3 60.9,42.7 61,43 61,43.5 61,43.9 61.1,44.4 61.1,44.8 61.1,45 61.1,45.2 61.1,45.4 61.1,45.5 61.1,45.7 61,45.9 61,46.1 
	61,46.3 61,46.5 61,46.7 61,46.9 60.9,47.1 60.9,47.3 60.9,47.5 60.8,47.7 60.8,47.9 60,52.9 59.9,53.3 59.8,53.6 59.8,54 
	59.7,54.3 59.6,54.6 59.5,54.9 59.5,55.2 59.4,55.5 59.3,55.8 59.2,56.1 59.1,56.4 59,56.7 58.9,56.9 58.8,57.2 58.7,57.5 
	58.5,57.7 58.4,58 58.3,58.2 58.2,58.5 58,58.7 57.9,58.9 57.8,59.2 57.6,59.4 57.5,59.6 57.3,59.8 57.2,60 57,60.2 56.9,60.4 
	56.7,60.6 56.5,60.8 56.3,61 56.2,61.1 56,61.3 55.8,61.5 55.6,61.6 55.4,61.8 55.2,61.9 55,62 54.8,62.2 54.6,62.3 54.4,62.4 
	54.2,62.5 53.9,62.7 53.7,62.8 53.5,62.9 53.2,63 53,63 52.8,63.1 52.5,63.2 52.2,63.3 52,63.4 51.7,63.4 51.5,63.5 51.2,63.5 
	50.9,63.6 50.6,63.7 50.3,63.7 50,63.7 49.8,63.8 49.5,63.8 49.2,63.8 48.8,63.8 48.5,63.8 48.2,63.8 47.9,63.8 47.6,63.8 
	47.3,63.8 47,63.8 46.7,63.8 46.4,63.7 46.1,63.7 45.9,63.7 45.6,63.6 45.3,63.5 45.1,63.5 44.8,63.4 44.6,63.4 44.4,63.3 
	44.1,63.2 43.9,63.2 43.7,63.1 43.5,63 43.3,62.9 43.1,62.8 42.9,62.7 42.7,62.6 42.5,62.4 42.4,62.3 42.2,62.2 42,62.1 40.7,61 
	40.9,61.1 41,61.2 41.2,61.3 41.4,61.5 41.6,61.6 41.8,61.7 42,61.8 42.2,61.9 42.4,62 42.6,62 42.8,62.1 43.1,62.2 43.3,62.3 
	43.5,62.3 43.8,62.4 44,62.5 44.3,62.5 44.6,62.5 44.8,62.6 45.1,62.6 45.4,62.7 45.7,62.7 46,62.7 46.3,62.7 46.6,62.7 47,62.7 
	47.3,62.7 47.6,62.7 47.9,62.7 48.2,62.7 48.5,62.7 48.8,62.6 49.1,62.6 49.4,62.5 49.7,62.5 49.9,62.5 50.2,62.4 50.5,62.3 
	50.8,62.3 51,62.2 51.3,62.1 51.5,62 51.8,62 52,61.9 52.3,61.8 52.5,61.7 52.7,61.5 53,61.4 53.2,61.3 53.4,61.2 53.6,61.1 
	53.8,60.9 54,60.8 54.2,60.6 54.4,60.5 54.6,60.3 54.8,60.2 55,60 55.2,59.8 55.3,59.7 55.5,59.5 55.7,59.3 55.8,59.1 56,58.9 
	56.2,58.7 56.3,58.5 56.5,58.3 56.6,58 56.8,57.8 56.9,57.6 57,57.3 57.2,57.1 57.3,56.8 57.4,56.6 57.5,56.3 57.6,56 57.7,55.8 
	57.8,55.5 57.9,55.2 58,54.9 58.1,54.6 58.2,54.3 58.3,54 58.4,53.7 58.5,53.4 58.5,53.1 58.6,52.8 58.7,52.4 58.8,52.1 58.8,51.7 
	59.7,46.7 59.7,46.5 59.7,46.3 59.8,46 59.8,45.8 59.8,45.6 59.8,45.4 59.9,45.2 59.9,45 59.9,44.8 59.9,44.7 59.9,44.5 59.9,44.3 
	59.9,44.1 60,43.9 60,43.7 60,43.5 59.9,43.1 59.9,42.6 59.9,42.2 59.8,41.8 59.8,41.3 59.7,40.9 59.5,40.6 59.4,40.2 59.3,39.8 
	59.1,39.5 59,39.2 58.8,38.9 58.6,38.6 "/>
<polygon class="st0" points="52.8,42.3 54,43.6 53.8,43.4 53.6,43.2 53.3,43.1 53.1,43 52.8,42.9 52.5,42.8 52.2,42.8 51.9,42.8 
	51.4,42.8 51,42.9 50.6,43 50.2,43.2 49.9,43.3 49.5,43.6 49.2,43.8 48.9,44.2 48.7,44.5 48.4,44.9 48.2,45.3 48,45.8 47.8,46.3 
	47.6,46.8 47.5,47.4 47.3,48.1 46.5,52.8 46.5,53 46.5,53.1 46.4,53.3 46.4,53.4 46.4,53.6 46.4,53.7 46.4,53.9 46.3,54 46.3,54.2 
	46.3,54.3 46.3,54.5 46.3,54.6 46.3,54.7 46.3,54.8 46.3,55 46.3,55.1 46.3,55.5 46.3,55.8 46.4,56.2 46.5,56.5 46.6,56.8 46.7,57 
	46.8,57.3 47,57.5 47.2,57.7 45.9,56.5 45.7,56.3 45.6,56.1 45.4,55.9 45.3,55.6 45.2,55.3 45.1,55 45.1,54.7 45,54.3 45,53.9 
	45,53.8 45,53.7 45,53.5 45,53.4 45,53.3 45,53.1 45,53 45.1,52.8 45.1,52.7 45.1,52.5 45.1,52.4 45.1,52.2 45.2,52.1 45.2,51.9 
	45.2,51.8 45.2,51.6 46.1,46.8 46.2,46.2 46.3,45.6 46.5,45 46.7,44.5 46.9,44 47.2,43.6 47.4,43.2 47.7,42.8 48,42.5 48.3,42.3 
	48.6,42 49,41.8 49.4,41.7 49.8,41.6 50.2,41.5 50.6,41.5 51,41.5 51.3,41.5 51.6,41.6 51.9,41.7 52.1,41.8 52.4,41.9 52.6,42.1 "/>
<path class="st3" d="M22.1,55c0,0.6,0.3,1.2,0.7,1.5c1.6,0.9,3.7,0.7,5.1-0.5c0.7-0.7,1.1-1.7,1.1-2.7c0-0.9-0.2-1.8-0.8-2.5
	c-0.5-0.6-1.2-0.9-2-0.9c-1.2-0.1-2.3,0.3-3.2,0.9l-0.4,0.3h-6.1l2.6-15.1h17.4l-1,5.7H24.3l-0.6,3.6c1.5-0.6,3.1-0.9,4.7-0.8
	c1.9-0.1,3.8,0.7,5.2,2c1.4,1.4,2.1,3.4,2,5.4c0.1,2.9-0.9,5.7-2.8,7.8c-1.9,2-4.7,3-8.3,3s-6.1-0.7-7.4-2c-1-1.1-1.6-2.6-1.5-4.2
	c0-0.7,0.1-1.3,0.2-2h6.4C22.1,54.7,22.1,54.9,22.1,55z"/>
<path class="st3" d="M51.6,35.9c5.6,0,8.4,2.6,8.4,7.7c0,1-0.1,2.1-0.3,3.1l-0.9,5.1c-0.6,3.7-1.9,6.5-3.8,8.3
	c-1.9,1.8-4.6,2.7-8,2.7c-3.4,0-5.8-0.9-7.1-2.7c-1-1.5-1.4-3.2-1.3-5c0-1.1,0.1-2.2,0.3-3.3l0.9-5.1C41,39.5,44.9,35.9,51.6,35.9
	L51.6,35.9z M45,53.9c0,2.1,1,3.2,2.9,3.2c1.1,0,2.1-0.4,2.9-1.2c0.9-1.2,1.5-2.7,1.7-4.3l0.8-4.8c0.1-0.7,0.2-1.4,0.2-2.1
	c0-2.2-0.9-3.3-2.9-3.3c-2.4,0-3.9,1.8-4.6,5.3l-0.9,4.8C45.1,52.4,45,53.1,45,53.9L45,53.9z"/>
<path class="st3" d="M68.2,35.8c2.2,0,3.3,1.3,3.3,4c0,0.5,0,1-0.1,1.4l-0.3,2.5c-0.5,3.7-2,5.5-4.6,5.5c-2.2,0-3.3-1.3-3.4-4
	c0-0.5,0-1,0.1-1.6l0.3-2.5C64,37.6,65.5,35.8,68.2,35.8L68.2,35.8z M65.9,44.7c0,0.9,0.3,1.4,1,1.4c0.4,0,0.7-0.2,0.9-0.5
	c0.3-0.6,0.5-1.2,0.5-1.9l0.3-2.4c0-0.3,0.1-0.5,0.1-0.8c0-1-0.3-1.5-0.9-1.5c-0.8,0-1.3,0.8-1.5,2.3L66,43.7
	C65.9,44,65.9,44.4,65.9,44.7L65.9,44.7z M64.2,62.2l13.6-26.3h3.7L67.8,62.2H64.2z M79,49.3c2.2,0,3.3,1.3,3.4,3.9
	c0,0.5,0,1-0.1,1.5l-0.3,2.5c-0.1,1.5-0.6,2.9-1.5,4.1c-0.8,0.9-1.9,1.4-3.1,1.4c-2.2,0-3.4-1.3-3.4-3.9c0-0.5,0-1,0.1-1.6l0.3-2.5
	C74.8,51.1,76.4,49.3,79,49.3z M76.7,58.2c0,0.9,0.3,1.4,0.9,1.4c0.4,0,0.8-0.2,1-0.5c0.3-0.6,0.5-1.2,0.5-1.9l0.3-2.4
	c0-0.3,0-0.5,0-0.8c0-1-0.3-1.5-0.9-1.5c-0.8,0-1.3,0.8-1.5,2.3l-0.3,2.4C76.7,57.5,76.7,57.9,76.7,58.2z"/>
</svg>
